<svg width="19" height="19" viewBox="0 0 19 19" fill="none" xmlns="http://www.w3.org/2000/svg">
<g clip-path="url(#clip0_91_1576)">
<path d="M15.4375 17.4167C16.0933 17.4167 16.625 16.885 16.625 16.2292C16.625 15.5734 16.0933 15.0417 15.4375 15.0417C14.7817 15.0417 14.25 15.5734 14.25 16.2292C14.25 16.885 14.7817 17.4167 15.4375 17.4167Z" fill="white" stroke="white" stroke-width="1.625" stroke-linecap="round" stroke-linejoin="round"/>
<path d="M7.52051 17.4167C8.17632 17.4167 8.70801 16.885 8.70801 16.2292C8.70801 15.5734 8.17632 15.0417 7.52051 15.0417C6.86467 15.0417 6.33301 15.5734 6.33301 16.2292C6.33301 16.885 6.86467 17.4167 7.52051 17.4167Z" fill="white" stroke="white" stroke-width="1.625" stroke-linecap="round" stroke-linejoin="round"/>
<path d="M3.95801 3.16665H17.4163L15.833 11.875H5.54134L3.95801 3.16665ZM3.95801 3.16665C3.82606 2.63887 3.16634 1.58331 1.58301 1.58331" stroke="white" stroke-width="1.625" stroke-linecap="round" stroke-linejoin="round"/>
<path d="M9 7H11M11 7H13M11 7V5M11 7V9" stroke="white" stroke-width="1.5" stroke-linecap="round" stroke-linejoin="round"/>
<path d="M15.8337 11.875H5.54199H4.14135C2.72877 11.875 1.97949 12.4935 1.97949 13.4583C1.97949 14.4232 2.72877 15.0417 4.14135 15.0417H15.4378" stroke="white" stroke-width="1.625" stroke-linecap="round" stroke-linejoin="round"/>
</g>
<defs>
<clipPath id="clip0_91_1576">
<rect width="19" height="19" fill="white"/>
</clipPath>
</defs>
</svg>
