<svg width="17" height="21" viewBox="0 0 17 21" fill="none" xmlns="http://www.w3.org/2000/svg">
<path d="M13.8403 10.8285C13.8688 13.9128 16.5424 14.9394 16.5719 14.9525C16.5493 15.0247 16.1448 16.4153 15.1635 17.8513C14.3152 19.0929 13.4347 20.33 12.0479 20.3559C10.6853 20.3808 10.247 19.5464 8.68893 19.5464C7.13131 19.5464 6.64459 20.33 5.35449 20.3808C4.01574 20.4317 2.99627 19.038 2.14096 17.8011C0.393299 15.2706 -0.942344 10.6504 0.851019 7.53178C1.74188 5.98303 3.33424 5.00243 5.0624 4.97716C6.37691 4.95206 7.6177 5.86277 8.42125 5.86277C9.2243 5.86277 10.7321 4.76749 12.3173 4.92827C12.9809 4.956 14.8436 5.19668 16.0396 6.95018C15.9435 7.01006 13.8172 8.24972 13.8403 10.8285ZM11.2793 3.25434C11.99 2.39285 12.4683 1.19323 12.3379 0C11.3134 0.0411797 10.0745 0.683648 9.3398 1.54481C8.68123 2.30721 8.10458 3.52784 8.26005 4.69744C9.40205 4.78603 10.5685 4.11633 11.2793 3.25434Z" fill="#2B2932"/>
</svg>
