<svg width="28" height="28" viewBox="0 0 28 28" fill="none" xmlns="http://www.w3.org/2000/svg">
<path d="M22.75 25.6667C23.7165 25.6667 24.5 24.8831 24.5 23.9167C24.5 22.9502 23.7165 22.1667 22.75 22.1667C21.7835 22.1667 21 22.9502 21 23.9167C21 24.8831 21.7835 25.6667 22.75 25.6667Z" fill="#4A4A4A" stroke="#4A4A4A" stroke-width="1.625" stroke-linecap="round" stroke-linejoin="round"/>
<path d="M11.0833 25.6667C12.0498 25.6667 12.8333 24.8831 12.8333 23.9167C12.8333 22.9502 12.0498 22.1667 11.0833 22.1667C10.1168 22.1667 9.33334 22.9502 9.33334 23.9167C9.33334 24.8831 10.1168 25.6667 11.0833 25.6667Z" fill="#4A4A4A" stroke="#4A4A4A" stroke-width="1.625" stroke-linecap="round" stroke-linejoin="round"/>
<path d="M5.83334 4.66667H25.6667L23.3333 17.5H8.16668L5.83334 4.66667ZM5.83334 4.66667C5.6389 3.88888 4.66668 2.33333 2.33334 2.33333" stroke="#4A4A4A" stroke-width="1.625" stroke-linecap="round" stroke-linejoin="round"/>
<path d="M23.3333 17.5H8.16666H6.10255C4.02086 17.5 2.91666 18.4114 2.91666 19.8333C2.91666 21.2553 4.02086 22.1667 6.10255 22.1667H22.75" stroke="#4A4A4A" stroke-width="1.625" stroke-linecap="round" stroke-linejoin="round"/>
</svg>
