<svg width="20" height="20" viewBox="0 0 20 20" fill="none" xmlns="http://www.w3.org/2000/svg">
<g clip-path="url(#clip0_176_430)">
<path d="M3.33398 5.83334H16.6673" stroke="#FF0000" stroke-width="2" stroke-linecap="round" stroke-linejoin="round"/>
<path d="M8.33398 9.16666V14.1667" stroke="#FF0000" stroke-width="2" stroke-linecap="round" stroke-linejoin="round"/>
<path d="M11.666 9.16666V14.1667" stroke="#FF0000" stroke-width="2" stroke-linecap="round" stroke-linejoin="round"/>
<path d="M4.16602 5.83334L4.99935 15.8333C4.99935 16.2754 5.17494 16.6993 5.4875 17.0119C5.80006 17.3244 6.22399 17.5 6.66602 17.5H13.3327C13.7747 17.5 14.1986 17.3244 14.5112 17.0119C14.8238 16.6993 14.9993 16.2754 14.9993 15.8333L15.8327 5.83334" stroke="#FF0000" stroke-width="2" stroke-linecap="round" stroke-linejoin="round"/>
<path d="M7.5 5.83333V3.33333C7.5 3.11232 7.5878 2.90036 7.74408 2.74408C7.90036 2.5878 8.11232 2.5 8.33333 2.5H11.6667C11.8877 2.5 12.0996 2.5878 12.2559 2.74408C12.4122 2.90036 12.5 3.11232 12.5 3.33333V5.83333" stroke="#FF0000" stroke-width="2" stroke-linecap="round" stroke-linejoin="round"/>
</g>
<defs>
<clipPath id="clip0_176_430">
<rect width="20" height="20" fill="white"/>
</clipPath>
</defs>
</svg>
