<svg width="20" height="20" viewBox="0 0 20 20" fill="none" xmlns="http://www.w3.org/2000/svg">
<g clip-path="url(#clip0_176_415)">
<path d="M5.83398 5.83334H5.00065C4.55862 5.83334 4.1347 6.00894 3.82214 6.3215C3.50958 6.63406 3.33398 7.05798 3.33398 7.50001V15C3.33398 15.442 3.50958 15.866 3.82214 16.1785C4.1347 16.4911 4.55862 16.6667 5.00065 16.6667H12.5007C12.9427 16.6667 13.3666 16.4911 13.6792 16.1785C13.9917 15.866 14.1673 15.442 14.1673 15V14.1667" stroke="#444C4E" stroke-width="2" stroke-linecap="round" stroke-linejoin="round"/>
<path d="M16.9875 5.4875C17.3157 5.15929 17.5001 4.71415 17.5001 4.25C17.5001 3.78585 17.3157 3.3407 16.9875 3.0125C16.6593 2.68429 16.2142 2.49991 15.75 2.49991C15.2858 2.49991 14.8407 2.68429 14.5125 3.0125L7.5 10V12.5H10L16.9875 5.4875Z" stroke="#444C4E" stroke-width="2" stroke-linecap="round" stroke-linejoin="round"/>
<path d="M13.334 4.16666L15.834 6.66666" stroke="#444C4E" stroke-width="2" stroke-linecap="round" stroke-linejoin="round"/>
</g>
<defs>
<clipPath id="clip0_176_415">
<rect width="20" height="20" rx="8" fill="white"/>
</clipPath>
</defs>
</svg>
