<svg width="37" height="37" viewBox="0 0 37 37" fill="none" xmlns="http://www.w3.org/2000/svg">
<g clip-path="url(#clip0_60_1723)">
<path d="M13.2008 26.8481C14.337 27.5041 15.5913 27.9299 16.892 28.1011C18.1927 28.2723 19.5144 28.1857 20.7817 27.8462C22.0489 27.5066 23.2369 26.9208 24.2778 26.1221C25.3186 25.3234 26.1919 24.3276 26.8479 23.1914C27.5039 22.0552 27.9297 20.8009 28.1009 19.5002C28.2721 18.1995 28.1855 16.8777 27.846 15.6105C27.5064 14.3432 26.9206 13.1553 26.1219 12.1144C25.3232 11.0736 24.3274 10.2002 23.1912 9.54426C20.8965 8.21946 18.1696 7.86045 15.6103 8.54622C13.051 9.23199 10.8689 10.9064 9.54407 13.201C8.21926 15.4956 7.86026 18.2226 8.54603 20.7819C9.2318 23.3412 10.9062 25.5233 13.2008 26.8481Z" stroke="white" stroke-width="2" stroke-linecap="round" stroke-linejoin="round"/>
<path d="M14.3508 15.9761L15.976 22.0415" stroke="white" stroke-width="2" stroke-linecap="round" stroke-linejoin="round"/>
<path d="M14.3508 15.9761L22.0414 20.4162" stroke="white" stroke-width="2" stroke-linecap="round" stroke-linejoin="round"/>
<path d="M20.4163 14.3508L14.3509 15.976" stroke="white" stroke-width="2" stroke-linecap="round" stroke-linejoin="round"/>
</g>
<defs>
<clipPath id="clip0_60_1723">
<rect width="26.641" height="26.641" fill="white" transform="translate(13.3205) rotate(30)"/>
</clipPath>
</defs>
</svg>
