<svg width="20" height="20" viewBox="0 0 20 20" fill="none" xmlns="http://www.w3.org/2000/svg">
<g clip-path="url(#clip0_170_3039)">
<path d="M7.5 9.16669C7.5 9.82973 7.76339 10.4656 8.23223 10.9345C8.70107 11.4033 9.33696 11.6667 10 11.6667C10.663 11.6667 11.2989 11.4033 11.7678 10.9345C12.2366 10.4656 12.5 9.82973 12.5 9.16669C12.5 8.50365 12.2366 7.86776 11.7678 7.39892C11.2989 6.93008 10.663 6.66669 10 6.66669C9.33696 6.66669 8.70107 6.93008 8.23223 7.39892C7.76339 7.86776 7.5 8.50365 7.5 9.16669Z" stroke="#444C4E" stroke-width="2" stroke-linecap="round" stroke-linejoin="round"/>
<path d="M14.7148 13.8808L11.179 17.4167C10.8665 17.7289 10.4428 17.9042 10.0011 17.9042C9.55933 17.9042 9.13567 17.7289 8.82315 17.4167L5.28649 13.8808C4.35417 12.9485 3.71927 11.7606 3.46206 10.4674C3.20485 9.17419 3.3369 7.83376 3.84149 6.61561C4.34608 5.39745 5.20057 4.35628 6.29689 3.62376C7.39321 2.89123 8.68213 2.50024 10.0007 2.50024C11.3192 2.50024 12.6081 2.89123 13.7044 3.62376C14.8007 4.35628 15.6552 5.39745 16.1598 6.61561C16.6644 7.83376 16.7965 9.17419 16.5392 10.4674C16.282 11.7606 15.6471 12.9485 14.7148 13.8808Z" stroke="#444C4E" stroke-width="2" stroke-linecap="round" stroke-linejoin="round"/>
</g>
<defs>
<clipPath id="clip0_170_3039">
<rect width="20" height="20" fill="white"/>
</clipPath>
</defs>
</svg>
