<svg width="20" height="20" viewBox="0 0 20 20" fill="none" xmlns="http://www.w3.org/2000/svg">
<g clip-path="url(#clip0_51_4754)">
<path d="M17.5 5.83317C17.5 5.39114 17.3244 4.96722 17.0118 4.65466C16.6993 4.3421 16.2754 4.1665 15.8333 4.1665H4.16667C3.72464 4.1665 3.30072 4.3421 2.98816 4.65466C2.6756 4.96722 2.5 5.39114 2.5 5.83317V14.1665C2.5 14.6085 2.6756 15.0325 2.98816 15.345C3.30072 15.6576 3.72464 15.8332 4.16667 15.8332H15.8333C16.2754 15.8332 16.6993 15.6576 17.0118 15.345C17.3244 15.0325 17.5 14.6085 17.5 14.1665V5.83317Z" stroke="#444C4E" stroke-width="2" stroke-linecap="round" stroke-linejoin="round"/>
<path d="M17.5 5.8335L10 10.8335L2.5 5.8335" stroke="#444C4E" stroke-width="2" stroke-linecap="round" stroke-linejoin="round"/>
</g>
<defs>
<clipPath id="clip0_51_4754">
<rect width="20" height="20" fill="white" transform="matrix(-1 0 0 1 20 0)"/>
</clipPath>
</defs>
</svg>
