<svg width="20" height="20" viewBox="0 0 20 20" fill="none" xmlns="http://www.w3.org/2000/svg">
<g clip-path="url(#clip0_170_3023)">
<path d="M15.8333 3.33334H12.5L10.8333 7.50001L12.9167 8.75001C12.0242 10.5596 10.5596 12.0242 8.75 12.9167L7.5 10.8333L3.33333 12.5V15.8333C3.33333 16.2754 3.50893 16.6993 3.82149 17.0119C4.13405 17.3244 4.55797 17.5 5 17.5C8.25061 17.3025 11.3165 15.9221 13.6193 13.6193C15.9221 11.3165 17.3025 8.25062 17.5 5.00001C17.5 4.55798 17.3244 4.13406 17.0118 3.8215C16.6993 3.50894 16.2754 3.33334 15.8333 3.33334Z" stroke="#444C4E" stroke-width="2" stroke-linecap="round" stroke-linejoin="round"/>
</g>
<defs>
<clipPath id="clip0_170_3023">
<rect width="20" height="20" fill="white" transform="matrix(-1 0 0 1 20 0)"/>
</clipPath>
</defs>
</svg>
