<svg width="20" height="20" viewBox="0 0 20 20" fill="none" xmlns="http://www.w3.org/2000/svg">
<g clip-path="url(#clip0_51_4749)">
<path d="M15.8333 3.3335H12.5L10.8333 7.50016L12.9167 8.75016C12.0242 10.5598 10.5596 12.0244 8.75 12.9168L7.5 10.8335L3.33333 12.5002V15.8335C3.33333 16.2755 3.50893 16.6994 3.82149 17.012C4.13405 17.3246 4.55797 17.5002 5 17.5002C8.25061 17.3026 11.3165 15.9222 13.6193 13.6195C15.9221 11.3167 17.3025 8.25078 17.5 5.00016C17.5 4.55814 17.3244 4.13421 17.0118 3.82165C16.6993 3.50909 16.2754 3.3335 15.8333 3.3335Z" stroke="#444C4E" stroke-width="2" stroke-linecap="round" stroke-linejoin="round"/>
</g>
<defs>
<clipPath id="clip0_51_4749">
<rect width="20" height="20" fill="white" transform="matrix(-1 0 0 1 20 0)"/>
</clipPath>
</defs>
</svg>
