<svg width="28" height="28" viewBox="0 0 28 28" fill="none" xmlns="http://www.w3.org/2000/svg">
<path d="M14 2.33333C7.55667 2.33333 2.33333 7.55667 2.33333 14C2.33333 20.4433 7.55667 25.6667 14 25.6667C20.4433 25.6667 25.6667 20.4433 25.6667 14C25.6667 7.55667 20.4433 2.33333 14 2.33333Z" stroke="#4A4A4A" stroke-width="1.625" stroke-linecap="round" stroke-linejoin="round"/>
<path d="M4.98283 21.4033C4.98283 21.4033 7.58336 18.0833 14 18.0833C20.4167 18.0833 23.0173 21.4033 23.0173 21.4033" stroke="#4A4A4A" stroke-width="1.625" stroke-linecap="round" stroke-linejoin="round"/>
<path d="M14 14C15.933 14 17.5 12.433 17.5 10.5C17.5 8.56701 15.933 7 14 7C12.0669 7 10.5 8.56701 10.5 10.5C10.5 12.433 12.0669 14 14 14Z" stroke="#4A4A4A" stroke-width="1.625" stroke-linecap="round" stroke-linejoin="round"/>
</svg>
