<svg width="55" height="55" viewBox="0 0 55 55" fill="none" xmlns="http://www.w3.org/2000/svg">
<g clip-path="url(#clip0_51_4712)">
<path d="M11.4583 38.9583C11.4583 40.1739 11.9412 41.3397 12.8008 42.1992C13.6603 43.0588 14.8261 43.5417 16.0417 43.5417C17.2572 43.5417 18.423 43.0588 19.2826 42.1992C20.1421 41.3397 20.625 40.1739 20.625 38.9583C20.625 37.7428 20.1421 36.577 19.2826 35.7174C18.423 34.8579 17.2572 34.375 16.0417 34.375C14.8261 34.375 13.6603 34.8579 12.8008 35.7174C11.9412 36.577 11.4583 37.7428 11.4583 38.9583Z" stroke="black" stroke-width="2" stroke-linecap="round" stroke-linejoin="round"/>
<path d="M34.375 38.9583C34.375 40.1739 34.8579 41.3397 35.7174 42.1992C36.577 43.0588 37.7428 43.5417 38.9583 43.5417C40.1739 43.5417 41.3397 43.0588 42.1992 42.1992C43.0588 41.3397 43.5417 40.1739 43.5417 38.9583C43.5417 37.7428 43.0588 36.577 42.1992 35.7174C41.3397 34.8579 40.1739 34.375 38.9583 34.375C37.7428 34.375 36.577 34.8579 35.7174 35.7174C34.8579 36.577 34.375 37.7428 34.375 38.9583Z" stroke="black" stroke-width="2" stroke-linecap="round" stroke-linejoin="round"/>
<path d="M11.4583 38.9585H6.875V13.7502C6.875 13.1424 7.11644 12.5595 7.54621 12.1297C7.97598 11.6999 8.55888 11.4585 9.16667 11.4585H29.7917V38.9585M20.625 38.9585H34.375M43.5417 38.9585H48.125V25.2085M48.125 25.2085H29.7917M48.125 25.2085L41.25 13.7502H29.7917" stroke="black" stroke-width="2" stroke-linecap="round" stroke-linejoin="round"/>
</g>
<defs>
<clipPath id="clip0_51_4712">
<rect width="55" height="55" fill="white"/>
</clipPath>
</defs>
</svg>
