<svg width="28" height="28" viewBox="0 0 28 28" fill="none" xmlns="http://www.w3.org/2000/svg">
<g clip-path="url(#clip0_170_3640)">
<g clip-path="url(#clip1_170_3640)">
<path d="M22.7495 14.1673L13.9995 22.8333L5.24954 14.1673C4.67239 13.6057 4.21779 12.9307 3.91434 12.1847C3.6109 11.4388 3.46519 10.6381 3.4864 9.83309C3.5076 9.02807 3.69526 8.23616 4.03755 7.50723C4.37985 6.77829 4.86936 6.12813 5.47527 5.59768C6.08118 5.06722 6.79036 4.66797 7.55815 4.42506C8.32594 4.18215 9.13571 4.10085 9.93647 4.18627C10.7372 4.27169 11.5116 4.52198 12.2109 4.92139C12.9102 5.3208 13.5192 5.86067 13.9995 6.507C14.482 5.86536 15.0917 5.33021 15.7905 4.93504C16.4893 4.53987 17.2621 4.29319 18.0606 4.21044C18.8591 4.12769 19.6661 4.21065 20.4311 4.45412C21.1961 4.6976 21.9026 5.09635 22.5063 5.62542C23.1101 6.1545 23.5982 6.8025 23.94 7.52887C24.2819 8.25525 24.4701 9.04436 24.4929 9.84683C24.5157 10.6493 24.3727 11.4478 24.0727 12.1925C23.7727 12.9371 23.3223 13.6118 22.7495 14.1743" stroke="#4A4A4A" stroke-width="2" stroke-linecap="round" stroke-linejoin="round"/>
</g>
</g>
<defs>
<clipPath id="clip0_170_3640">
<rect width="28" height="28" fill="white"/>
</clipPath>
<clipPath id="clip1_170_3640">
<rect width="28" height="28" fill="white" transform="translate(0 -0.5)"/>
</clipPath>
</defs>
</svg>
