<svg width="24" height="24" viewBox="0 0 24 24" fill="none" xmlns="http://www.w3.org/2000/svg">
<g clip-path="url(#clip0_51_4759)">
<path d="M18.608 17.75L14.708 18.018H14.681C13.4081 18.1208 12.1555 18.3995 10.959 18.846L8.448 19.754C7.91482 19.9466 7.34758 20.0268 6.78192 19.9896C6.21625 19.9524 5.66439 19.7987 5.161 19.538C4.66737 19.2857 4.23457 18.929 3.89265 18.4926C3.55074 18.0562 3.3079 17.5506 3.181 17.011L1.805 10.961C1.69458 10.4729 1.68518 9.96743 1.77735 9.47559C1.86953 8.98375 2.06134 8.51596 2.341 8.10099C2.9218 7.24342 3.81519 6.64723 4.83 6.43999L16.08 4.08599C18.217 3.63799 20.327 4.93599 20.793 6.98599L22.196 13.148C22.3168 13.6818 22.317 14.2359 22.1964 14.7698C22.0758 15.3037 21.8375 15.8039 21.499 16.234C21.1502 16.6746 20.7127 17.0369 20.2148 17.2974C19.7169 17.5578 19.1698 17.7107 18.609 17.746V17.748L18.608 17.75Z" stroke="#4A4A4A" stroke-width="2" stroke-linecap="round" stroke-linejoin="round"/>
<path d="M9 10L10.208 15L14.5 11L9 10Z" stroke="#4A4A4A" stroke-width="2" stroke-linecap="round" stroke-linejoin="round"/>
</g>
<defs>
<clipPath id="clip0_51_4759">
<rect width="24" height="24" fill="white"/>
</clipPath>
</defs>
</svg>
